<mxfile host="app.diagrams.net" modified="2021-06-02T08:48:11.686Z" agent="5.0 (Macintosh; Intel Mac OS X 10_15_7) AppleWebKit/537.36 (KHTML, like Gecko) Chrome/86.0.4240.193 Safari/537.36" etag="Kc-cmclkJLwRKVFwd8pF" version="14.7.3" type="github">
  <diagram id="A8Fs9izFja-Wp4bvaSlW" name="Page-1">
    <mxGraphModel dx="946" dy="536" grid="1" gridSize="10" guides="1" tooltips="1" connect="1" arrows="1" fold="1" page="1" pageScale="1" pageWidth="827" pageHeight="1169" math="0" shadow="0">
      <root>
        <mxCell id="0" />
        <mxCell id="1" parent="0" />
        <mxCell id="bRyz5A-xJ1zP-d8NRQL_-6" value="" style="html=1;align=center;verticalAlign=top;rounded=1;absoluteArcSize=1;arcSize=20;dashed=1;fillColor=#d5e8d4;strokeColor=#82b366;" vertex="1" parent="1">
          <mxGeometry x="250" y="50" width="520" height="250" as="geometry" />
        </mxCell>
        <mxCell id="bRyz5A-xJ1zP-d8NRQL_-10" style="edgeStyle=orthogonalEdgeStyle;rounded=0;orthogonalLoop=1;jettySize=auto;html=1;exitX=1;exitY=0.25;exitDx=0;exitDy=0;entryX=0;entryY=0.5;entryDx=0;entryDy=0;" edge="1" parent="1" source="bRyz5A-xJ1zP-d8NRQL_-1" target="bRyz5A-xJ1zP-d8NRQL_-2">
          <mxGeometry relative="1" as="geometry" />
        </mxCell>
        <mxCell id="bRyz5A-xJ1zP-d8NRQL_-1" value="&lt;pre&gt;Channel&lt;/pre&gt;&lt;pre&gt;代表一条物理连接&lt;/pre&gt;&lt;pre&gt;一个Channel分配一个&lt;/pre&gt;&lt;pre&gt;&lt;pre&gt;ChannelPipeline&lt;/pre&gt;&lt;/pre&gt;" style="rounded=1;whiteSpace=wrap;html=1;fillColor=#dae8fc;strokeColor=#6c8ebf;" vertex="1" parent="1">
          <mxGeometry x="60" y="80" width="140" height="200" as="geometry" />
        </mxCell>
        <mxCell id="bRyz5A-xJ1zP-d8NRQL_-12" style="edgeStyle=orthogonalEdgeStyle;rounded=0;orthogonalLoop=1;jettySize=auto;html=1;exitX=1;exitY=0.5;exitDx=0;exitDy=0;entryX=0;entryY=0.5;entryDx=0;entryDy=0;" edge="1" parent="1" source="bRyz5A-xJ1zP-d8NRQL_-2" target="bRyz5A-xJ1zP-d8NRQL_-3">
          <mxGeometry relative="1" as="geometry" />
        </mxCell>
        <mxCell id="bRyz5A-xJ1zP-d8NRQL_-2" value="&lt;pre&gt;&lt;pre&gt;ChannelInboundHandler&lt;/pre&gt;&lt;/pre&gt;" style="rounded=1;whiteSpace=wrap;html=1;fillColor=#ffe6cc;strokeColor=#d79b00;" vertex="1" parent="1">
          <mxGeometry x="294" y="100" width="196" height="60" as="geometry" />
        </mxCell>
        <mxCell id="bRyz5A-xJ1zP-d8NRQL_-3" value="&lt;pre&gt;&lt;pre&gt;ChannelInboundHandler&lt;/pre&gt;&lt;/pre&gt;" style="rounded=1;whiteSpace=wrap;html=1;fillColor=#ffe6cc;strokeColor=#d79b00;" vertex="1" parent="1">
          <mxGeometry x="530" y="100" width="196" height="60" as="geometry" />
        </mxCell>
        <mxCell id="bRyz5A-xJ1zP-d8NRQL_-14" style="edgeStyle=orthogonalEdgeStyle;rounded=0;orthogonalLoop=1;jettySize=auto;html=1;exitX=0;exitY=0.5;exitDx=0;exitDy=0;entryX=1;entryY=0.75;entryDx=0;entryDy=0;" edge="1" parent="1" source="bRyz5A-xJ1zP-d8NRQL_-4" target="bRyz5A-xJ1zP-d8NRQL_-1">
          <mxGeometry relative="1" as="geometry" />
        </mxCell>
        <mxCell id="bRyz5A-xJ1zP-d8NRQL_-4" value="&lt;pre&gt;&lt;pre&gt;&lt;pre&gt;ChannelOutboundHandler&lt;/pre&gt;&lt;/pre&gt;&lt;/pre&gt;" style="rounded=1;whiteSpace=wrap;html=1;fillColor=#fff2cc;strokeColor=#d6b656;" vertex="1" parent="1">
          <mxGeometry x="294" y="200" width="196" height="60" as="geometry" />
        </mxCell>
        <mxCell id="bRyz5A-xJ1zP-d8NRQL_-13" style="edgeStyle=orthogonalEdgeStyle;rounded=0;orthogonalLoop=1;jettySize=auto;html=1;exitX=0;exitY=0.5;exitDx=0;exitDy=0;entryX=1;entryY=0.5;entryDx=0;entryDy=0;" edge="1" parent="1" source="bRyz5A-xJ1zP-d8NRQL_-5" target="bRyz5A-xJ1zP-d8NRQL_-4">
          <mxGeometry relative="1" as="geometry" />
        </mxCell>
        <mxCell id="bRyz5A-xJ1zP-d8NRQL_-5" value="&lt;pre&gt;&lt;pre&gt;&lt;pre&gt;ChannelOutboundHandler&lt;/pre&gt;&lt;/pre&gt;&lt;/pre&gt;" style="rounded=1;whiteSpace=wrap;html=1;fillColor=#fff2cc;strokeColor=#d6b656;" vertex="1" parent="1">
          <mxGeometry x="530" y="200" width="196" height="60" as="geometry" />
        </mxCell>
        <mxCell id="bRyz5A-xJ1zP-d8NRQL_-7" value="&lt;pre&gt;ChannelPipeline&lt;/pre&gt;" style="text;html=1;strokeColor=none;fillColor=none;align=center;verticalAlign=middle;whiteSpace=wrap;rounded=0;" vertex="1" parent="1">
          <mxGeometry x="448" y="60" width="124" height="20" as="geometry" />
        </mxCell>
      </root>
    </mxGraphModel>
  </diagram>
</mxfile>
